<?xml version="1.0" encoding="UTF-8" standalone="no"?>
<svg
   width="4000"
   height="4000"
   viewBox="0 0 4000 4000"
   version="1.1"
   id="svg34"
   xmlns="http://www.w3.org/2000/svg"
   xmlns:svg="http://www.w3.org/2000/svg">
  <defs
     id="defs34" />
  <g
     stroke-linecap="round"
     transform="translate(5)"
     id="walls">
    <path
       d="m 2112.2,63.5 c 17.64,0 55.79,0 76.31,0 23.39,0 73.06,0.01 99.33,0.01 29.15,0 90.33,0 122.35,0 34.91,0 107.6,0.01 145.38,0.01 38.75,0 115.51,0 153.53,0 37.28,0 111.13,0 147.69,0 35.83,0 106.75,-0.01 141.85,-0.01 34.37,0 102.95,-0.01 137.17,-0.01 41.81,0.02 124.26,0.04 164.9,0.06 39.44,0.02 117.15,0.05 155.41,0.07 37.08,0.02 110.04,0.06 145.93,0.08 34.02,0.02 98.84,0.05 129.64,0.05 27.55,-0.01 79.38,-0.03 103.67,-0.05 21.04,-0.04 59.85,-0.11 77.63,-0.16 3.94,-0.01 14.99,-0.05 16.99,-0.3 2.45,-0.29 4.01,0.11 4.52,1.25 0.01,0.04 0.22,55.31 0.28,75.65 0.04,23.2 0.12,72.45 0.15,98.51 0.02,28.92 0.03,89.6 0.03,121.38 -0.01,34.63 -0.06,106.71 -0.09,144.15 -0.03,38.14 -0.1,113.91 -0.13,151.54 -0.03,37.13 -0.08,110.87 -0.1,147.48 -0.03,36.11 -0.07,107.83 -0.09,143.43 -0.01,35.1 -0.05,104.68 -0.06,139.18 -0.03,33.82 -0.06,101.06 -0.08,134.46 -0.01,32.98 -0.04,98.52 -0.04,131.07 -0.01,32.14 -0.01,95.98 -0.01,127.69 0,31.28 0.02,93.46 0.03,124.34 0,30.87 0.02,92.73 0.03,123.73 0.01,31.12 0.03,93.5 0.03,124.75 0.01,31.38 0.03,94.26 0.03,125.76 0.01,31.63 0.02,95.06 0.02,126.86 0,32.03 0,96.22 0,128.39 0,32.29 0,97.01 0,129.43 0,32.56 0,97.8 0,130.49 0,32.81 0,98.56 0,131.49 0,32.71 0,97.77 0,130.12 0,32 0,95.62 0,127.25 0,31.28 0,93.47 0,124.38 0,30.55 0,93.55 0,125.99 0,38.74 0,115.72 0,153.96 0,37.75 -0.01,112.77 -0.01,150.03 0,36.76 0,109.74 0,145.95 -0.01,33.73 -0.01,97.85 -0.01,128.24 0,27.04 0.01,77.77 0.01,101.47 0,20.35 -0.08,61.45 -0.17,82.2 -0.21,10.25 1,26.13 0.93,26.43 -0.35,1.49 -2.04,2.33 -3.78,2.21 -0.34,-0.03 -56.19,0.27 -76.84,0.34 -23.54,0.06 -73.5,0.16 -99.92,0.19 -29.31,0.02 -90.81,0.04 -123,0.04 -35.08,-0.02 -108.08,-0.07 -146,-0.11 -38.49,-0.04 -114.79,-0.12 -152.59,-0.16 -37.1,-0.03 -110.61,-0.1 -147.01,-0.13 -35.71,-0.03 -106.42,-0.08 -141.43,-0.11 -34.32,-0.02 -104.44,-0.07 -140.26,-0.09 -41.46,-0.03 -123.28,-0.1 -163.62,-0.12 -39.24,-0.02 -116.58,-0.05 -154.7,-0.06 -37,0 -109.88,0.01 -145.77,0.02 -33.66,0.01 -97.69,0.03 -128.04,0.04 -27.04,0.01 -77.81,0.03 -101.53,0.04 -20.41,0.01 -57.92,0.03 -75.02,0.03 -1.9,0 -5.66,0.01 -7.51,0.01"
       fill="none"
       stroke="#000000"
       stroke-width="20"
       stroke-opacity="1"
       stroke-linejoin="round"
       id="path1" />
    <path
       d="m 1886.95,3922.5 c -18.8,0 -59.49,0 -81.37,0 -24.96,0 -77.96,0 -105.99,-0.01 -31.12,0 -96.44,0 -130.64,0 -37.27,0 -114.88,0 -155.22,0 -40.52,-0.01 -119.75,-0.01 -158.46,-0.01 -36.88,0 -108.82,0 -143.88,0 -33.23,0.01 -97.88,0.01 -129.3,0.01 -29.59,0 -91.77,0.01 -124.35,0.01 -48.53,0 -138.58,0.01 -180.1,0.01 -34.51,0 -96.61,0.01 -124.2,0.02 -24.83,0 -74.08,0 -98.51,0 -24.03,-0.01 -73.58,-0.02 -99.12,-0.04 -38.12,-0.03 -113.28,-0.12 -150.3,-0.17 -34.16,-0.08 -94.3,-0.32 -120.27,-0.48 -9.78,-0.11 -27.73,-0.33 -27.74,-0.34 -0.52,-0.38 -0.03,-3.26 0,-4 0.04,-0.64 -0.96,-3.77 -1,-4 0,-0.02 -0.05,-55.47 -0.06,-75.82 -0.01,-23.15 -0.03,-72.24 -0.03,-98.18 -0.01,-28.74 -0.01,-89.02 -0.01,-120.55 0,-34.33 0.01,-105.79 0.01,-142.92 0.01,-38.35 0.03,-114.48 0.03,-152.27 0.01,-37.23 0.02,-111.14 0.03,-147.81 0,-36.11 0.01,-107.77 0.02,-143.33 0,-34.99 0.01,-104.42 0.01,-138.85 0,-34.35 0.01,-102.59 0.01,-136.47 0,-33.38 0.01,-99.65 0.01,-132.54 0,-32.38 0,-96.65 0,-128.54 0,-31.39 0,-93.67 0,-124.55 0,-30.66 -0.01,-92.1 -0.01,-122.89 0,-30.93 0,-92.93 0,-124 0,-31.21 -0.01,-93.76 -0.01,-125.11 0,-31.49 0,-94.61 0,-126.24 0,-31.77 0,-95.46 0,-127.37 0,-32.05 0.01,-96.3 0.01,-128.49 0,-32.33 0,-97.14 0,-129.62 0,-32.61 0,-97.99 0.01,-130.74 0,-32.73 0,-97.84 0,-130.23 0,-32.04 0,-95.78 0,-127.48 0,-31.35 -0.01,-93.72 -0.01,-124.73 0,-30.66 -0.01,-91.65 -0.01,-121.97 0,-37.35 -0.01,-113.3 -0.01,-151.89 -0.01,-38.13 -0.02,-113.92 -0.03,-151.58 0,-37.19 -0.02,-111.11 -0.03,-147.84 0,-35.33 -0.01,-102.59 -0.01,-134.51 0,-28.43 0.01,-81.8 0.01,-106.75 0.02,-21.45 0.04,-60.87 0.06,-78.84 0.01,-7.89 1.04,-17.36 2.01,-17.89 0.02,-0.01 55.46,-0.14 75.83,-0.18 23.22,-0.03 72.48,-0.08 98.53,-0.1 28.89,-0.01 89.5,-0.02 121.23,-0.03 34.56,0.01 106.52,0.04 143.92,0.06 38.59,0.02 115.11,0.06 153.04,0.08 37.27,0.02 111.13,0.05 147.74,0.07 35.93,0.01 107.14,0.04 142.41,0.06 34.61,0.01 103.16,0.03 137.1,0.04 41.1,0.01 122.77,0.04 163.35,0.05 39.54,0.01 117.57,0.02 156.07,0.03 37.45,0 111.3,0 147.71,0 35.05,-0.01 102.15,-0.02 134.2,-0.02 28.82,-0.01 83.2,-0.01 108.78,-0.02 22.33,0 63.76,-0.01 82.85,-0.01 8.34,0 22.39,0 28.1,0"
       fill="none"
       stroke="#000000"
       stroke-width="20"
       stroke-opacity="1"
       stroke-linejoin="round"
       id="path2" />
    <path
       d="m 2219.05,190.5 c 21.84,0 64.48,0 85.3,0 23.75,0 74.19,0 100.87,0 29.62,0 91.8,0 124.36,0 35.49,0 109.41,0 147.83,0 40.4,0 119.89,0 158.98,0 37.54,0 111.05,0 147.03,0 34.41,0 101.68,0 134.54,0 31.29,0 92.31,0 122.05,0 43.39,0 134.44,0 182.08,0.01 42,0 120.32,0 156.66,0 30.8,0.01 88.02,0.01 114.43,0.01 22.29,0 62.73,-0.01 80.89,-0.01 7.53,0 29.77,0.2 31.43,-0.01 2.72,-0.31 5.3,0.03 6,1 0.01,0.02 0.22,55.34 0.28,75.67 0.05,23.15 0.13,72.27 0.16,98.24 0.02,28.79 0.03,89.2 0.04,120.81 -0.02,34.43 -0.06,106.12 -0.09,143.37 -0.03,38.29 -0.1,114.33 -0.13,152.07 -0.03,37.2 -0.08,111.06 -0.11,147.72 -0.02,36.12 -0.06,107.8 -0.08,143.37 -0.02,35.03 -0.06,104.55 -0.07,139.04 -0.02,34.04 -0.05,101.63 -0.06,135.17 -0.01,33.06 -0.03,98.67 -0.04,131.23 0,32.07 -0.01,95.71 -0.01,127.29 0.01,31.08 0.01,92.75 0.02,123.34 0.01,30.49 0.02,91.75 0.03,122.51 0.01,31.03 0.02,93.33 0.02,124.62 0.01,31.55 0.02,94.91 0.02,126.72 0.01,32.08 0.02,96.49 0.02,128.83 0,32.73 0,98.47 0,131.47 0,33.26 0,100.06 0,133.59 0,33.8 0,101.66 0,135.72 0,34.33 0,103.25 0,137.85 0,34.18 0,101.43 0,134.51 0,31.99 0,94.86 0,125.74 0,29.79 0,88.26 0,116.95 0,27.59 0,81.68 0,108.17 0,46.16 0,134.82 0,177.33 -0.01,38.84 -0.01,112.87 -0.01,148.06 0,31.3 -0.01,89.5 -0.01,116.41 0.01,22.49 0.01,63.07 0.02,81.15 0,3.83 0,14.04 -0.09,16.22 -0.12,3.16 0.65,9.73 -0.91,10.83 -0.02,0.01 -57.98,0.22 -79.3,0.28 -24.3,0.05 -75.89,0.13 -103.18,0.16 -30.27,0.02 -93.8,0.04 -127.05,0.04 -36.24,-0.01 -111.7,-0.05 -150.93,-0.08 -39.87,-0.03 -118.22,-0.1 -156.69,-0.13 -37.06,-0.03 -109.78,-0.08 -145.43,-0.11 -34.25,-0.02 -101.33,-0.07 -134.17,-0.09 -31.44,-0.02 -94.24,-0.06 -125.61,-0.07 -48.63,-0.03 -141.67,-0.09 -186.07,-0.11 -40.17,-0.01 -116.26,-0.02 -152.19,-0.03 -31.72,0.01 -91.1,0.02 -118.76,0.03 -23.62,0 -66.85,0.01 -86.44,0.02 -15.57,0 -32.79,0.01 -34.45,0.01"
       fill="none"
       stroke="#000000"
       stroke-width="20"
       stroke-opacity="1"
       stroke-linejoin="round"
       id="path3" />
    <path
       d="m 1788.37,3805.5 c -21.53,0 -63.88,0 -84.69,0 -23.74,0 -74.17,0 -100.85,0 -29.62,0 -91.79,0 -124.35,0 -35.49,0 -109.41,0 -147.84,0 -40.4,0 -119.89,0 -159,0 -37.54,0 -111.06,0 -147.03,0 -34.42,0 -101.7,0 -134.55,0 -31.3,0 -92.33,0 -122.06,0 -43.4,0 -134.45,0 -182.1,0 -41.99,-0.01 -120.32,-0.01 -156.66,-0.01 -30.8,0 -88.02,-0.01 -114.43,-0.01 -22.28,0 -62.72,0.01 -80.88,0.01 -7.53,0.01 -29.77,-0.2 -31.43,0.01 -2.72,0.31 -5.29,-0.03 -6,-1 -0.01,-0.02 -0.22,-55.34 -0.28,-75.67 -0.05,-23.15 -0.12,-72.27 -0.16,-98.24 -0.01,-28.79 -0.03,-89.19 -0.03,-120.81 0.01,-34.43 0.05,-106.12 0.08,-143.37 0.03,-38.29 0.1,-114.32 0.13,-152.07 0.03,-37.2 0.08,-111.06 0.11,-147.72 0.02,-36.11 0.07,-107.8 0.09,-143.37 0.01,-35.03 0.05,-104.55 0.06,-139.04 0.02,-34.04 0.05,-101.62 0.06,-135.17 0.02,-33.05 0.03,-98.67 0.04,-131.23 0,-32.07 0.01,-95.71 0.01,-127.28 0,-31.09 -0.01,-92.76 -0.02,-123.35 -0.01,-30.49 -0.02,-91.75 -0.03,-122.51 0,-31.02 -0.02,-93.33 -0.02,-124.62 -0.01,-31.55 -0.02,-94.91 -0.02,-126.72 -0.01,-32.08 -0.01,-96.49 -0.02,-128.83 0,-32.73 0,-98.47 0,-131.47 0,-33.26 0,-100.06 0,-133.59 0,-33.8 0,-101.66 0,-135.72 0,-34.33 0,-103.25 0,-137.85 0,-34.17 0,-101.43 0,-134.51 0,-31.99 0,-94.85 0,-125.74 0,-29.78 0,-88.26 0,-116.95 0,-27.59 0,-81.68 0,-108.17 0,-46.16 0.01,-134.82 0.01,-177.32 0,-38.85 0,-112.88 0.01,-148.07 0,-31.3 0,-89.5 0,-116.41 0,-22.49 -0.01,-63.07 -0.01,-81.15 -0.01,-3.83 -0.01,-14.04 0.08,-16.22 0.12,-3.16 -0.64,-9.73 0.91,-10.83 0.02,-0.01 57.94,-0.22 79.24,-0.28 24.29,-0.05 75.84,-0.13 103.1,-0.16 30.25,-0.02 93.73,-0.04 126.96,-0.04 36.21,0.01 111.62,0.05 150.81,0.08 39.85,0.04 118.16,0.1 156.62,0.13 37.07,0.03 109.8,0.09 145.47,0.11 34.28,0.03 101.44,0.07 134.32,0.09 31.49,0.02 94.39,0.06 125.81,0.08 48.48,0.03 141.28,0.08 185.62,0.1 40.19,0.01 116.44,0.02 152.5,0.03 31.93,-0.01 91.75,-0.02 119.65,-0.03 23.88,0 67.62,-0.01 87.48,-0.02 15.84,0 34.21,-0.01 36.74,-0.01"
       fill="none"
       stroke="#000000"
       stroke-width="20"
       stroke-opacity="1"
       stroke-linejoin="round"
       id="path4" />
    <path
       d="M 2109.42,72.88 V 2920.27 H 1902.14 V 72.9"
       fill="none"
       stroke="#000000"
       stroke-width="20"
       stroke-opacity="1"
       stroke-linejoin="miter"
       id="path5" />
    <path
       d="m 1104.8652,2500.4751 124.65,-0.46 332.91,330.45 1.74,469.06 -330.45,332.9 -469.05999,1.74 -332.91,-330.45 -1.73,-469.06 330.44,-332.9 125.67,-0.47"
       fill="none"
       stroke="#00ff00"
       stroke-width="20"
       stroke-opacity="1"
       stroke-linejoin="miter"
       id="path25"
       style="stroke:#000000;stroke-opacity:1" />
    <path
       d="m 1104.8652,1191.4651 122.65,-0.45 332.91,330.45 1.74,469.06 -330.45,332.9 -469.05999,1.74 -332.91,-330.45 -1.73,-469.06 330.44,-332.9 127.67,-0.48"
       fill="none"
       stroke="#00ff00"
       stroke-width="20"
       stroke-opacity="1"
       stroke-linejoin="miter"
       id="path26"
       style="stroke:#000000;stroke-opacity:1" />
    <path
       d="m 3109.8652,2502.4451 116.65,-0.43 332.91,330.45 1.74,469.06 -330.45,332.9 -469.06,1.74 -332.91,-330.45 -1.73,-469.06 330.44,-332.9 133.67,-0.5"
       fill="none"
       stroke="#00ff00"
       stroke-width="20"
       stroke-opacity="1"
       stroke-linejoin="miter"
       id="path27"
       style="stroke:#000000;stroke-opacity:1" />
    <path
       d="m 3109.8652,1193.4351 114.65,-0.42 332.91,330.45 1.74,469.06 -330.45,332.9 -469.06,1.74 -332.91,-330.45 -1.73,-469.06 330.44,-332.9 135.67,-0.51"
       fill="none"
       stroke="#00ff00"
       stroke-width="20"
       stroke-opacity="1"
       stroke-linejoin="miter"
       id="path28"
       style="stroke:#000000;stroke-opacity:1" />
    <path
       d="m 2206.97,187.73 v 2811.8 H 1804.59 V 199.95"
       fill="none"
       stroke="#000000"
       stroke-width="20"
       stroke-opacity="1"
       stroke-linejoin="miter"
       id="path6" />
    <path
       d="m 485.13,470.88 18,-17.92 199.78,0.49 140.92,141.61 -0.49,199.77 -141.61,140.92 -199.77,-0.49 -140.92,-141.6 0.49,-199.78 23.03,-22.92"
       fill="none"
       stroke="#000000"
       stroke-width="20"
       stroke-opacity="1"
       stroke-linejoin="miter"
       id="path7" />
    <path
       d="m 436.35,421.49 37.49,-37.3 252.45,0.62 178.07,178.94 -0.61,252.45 -178.95,178.08 -252.45,-0.62 -178.07,-178.94 0.61,-252.45 40.89,-40.69"
       fill="none"
       stroke="#000000"
       stroke-width="20"
       stroke-opacity="1"
       stroke-linejoin="miter"
       id="path8" />
    <path
       d="m 1282.39,471.29 13,-13.01 199.77,-0.13 141.35,141.17 0.13,199.78 -141.17,141.35 -199.78,0.13 -141.35,-141.18 -0.13,-199.77 27.91,-27.95"
       fill="none"
       stroke="#000000"
       stroke-width="20"
       stroke-opacity="1"
       stroke-linejoin="miter"
       id="path9" />
    <path
       d="m 1233.46,422.06 32.42,-32.46 252.45,-0.16 178.62,178.39 0.16,252.46 -178.39,178.62 -252.46,0.16 -178.62,-178.4 -0.16,-252.45 45.71,-45.77"
       fill="none"
       stroke="#000000"
       stroke-width="20"
       stroke-opacity="1"
       stroke-linejoin="miter"
       id="path10" />
    <path
       d="m 2814.32,576.12 25.02,25.04 -0.1,199.78 -141.33,141.19 -199.78,-0.1 -141.19,-141.33 0.1,-199.78 141.33,-141.19 199.78,0.1 15.89,15.91"
       fill="none"
       stroke="#000000"
       stroke-width="20"
       stroke-opacity="1"
       stroke-linejoin="miter"
       id="path11" />
    <path
       d="m 2863.61,527.25 44.44,44.48 -0.12,252.46 -178.6,178.42 -252.45,-0.13 -178.43,-178.6 0.13,-252.45 178.6,-178.42 252.45,0.13 33.7,33.73"
       fill="none"
       stroke="#000000"
       stroke-width="20"
       stroke-opacity="1"
       stroke-linejoin="miter"
       id="path12" />
    <path
       d="m 3608.81,582.65 23.59,23.64 -0.19,199.77 -141.4,141.13 -199.78,-0.19 -141.12,-141.4 0.19,-199.77 141.4,-141.13 199.77,0.19 17.3,17.33"
       fill="none"
       stroke="#000000"
       stroke-width="20"
       stroke-opacity="1"
       stroke-linejoin="miter"
       id="path13" />
    <path
       d="m 3658.12,533.8 43.01,43.09 -0.25,252.45 -178.68,178.34 -252.45,-0.24 -178.34,-178.68 0.24,-252.45 178.68,-178.34 252.46,0.24 35.09,35.16"
       fill="none"
       stroke="#000000"
       stroke-width="20"
       stroke-opacity="1"
       stroke-linejoin="miter"
       id="path14" />
    <path
       d="m 1798.11,3805.92 v -320.54 h 402.32 v 320.46"
       fill="none"
       stroke="#000000"
       stroke-width="20"
       stroke-opacity="1"
       stroke-linejoin="miter"
       id="path15" />
    <path
       d="m 1896.74,3922.93 v -326.71 h 221.69 v 326.65"
       fill="none"
       stroke="#000000"
       stroke-width="20"
       stroke-opacity="1"
       stroke-linejoin="miter"
       id="path16" />
    <path
       d="m 1800,3085.45 h 407.27 v 129.1 H 1800 Z"
       fill="none"
       stroke="#000000"
       stroke-width="20"
       stroke-opacity="1"
       stroke-linejoin="miter"
       id="path17" />
    <path
       d="m 1801.82,3280.91 h 405.45 v 76.36 h -405.45 z"
       fill="none"
       stroke="#000000"
       stroke-width="20"
       stroke-opacity="1"
       stroke-linejoin="miter"
       id="path18" />
    <path
       d="m 1108.1152,2619.285 73.59,-0.27 263.44,261.5 1.37,371.18 -261.49,263.45 -371.18998,1.37 -263.45,-261.5 -1.37,-371.18 261.5,-263.45 78.86,-0.29"
       fill="none"
       stroke="#ff0000"
       stroke-width="20"
       stroke-opacity="1"
       stroke-linejoin="miter"
       id="path29"
       style="stroke:#000000;stroke-opacity:1" />
    <path
       d="m 1108.1152,1310.275 71.59,-0.26 263.44,261.5 1.37,371.18 -261.49,263.45 -371.18998,1.37 -263.45,-261.5 -1.37,-371.18 261.5,-263.45 80.86,-0.3"
       fill="none"
       stroke="#ff0000"
       stroke-width="20"
       stroke-opacity="1"
       stroke-linejoin="miter"
       id="path30"
       style="stroke:#000000;stroke-opacity:1" />
    <path
       d="m 3113.1152,2621.255 65.59,-0.24 263.44,261.5 1.37,371.18 -261.49,263.45 -371.19,1.37 -263.45,-261.5 -1.37,-371.18 261.5,-263.45 86.86,-0.32"
       fill="none"
       stroke="#ff0000"
       stroke-width="20"
       stroke-opacity="1"
       stroke-linejoin="miter"
       id="path31"
       style="stroke:#000000;stroke-opacity:1" />
    <path
       d="m 3113.1152,1312.245 63.59,-0.23 263.44,261.5 1.37,371.18 -261.49,263.45 -371.19,1.37 -263.45,-261.5 -1.37,-371.18 261.5,-263.45 88.86,-0.33"
       fill="none"
       stroke="#ff0000"
       stroke-width="20"
       stroke-opacity="1"
       stroke-linejoin="miter"
       id="path32"
       style="stroke:#000000;stroke-opacity:1" />
    <path
       d="m 1798,3393.39 h 170.25 v 66.11 H 1798 Z"
       fill="none"
       stroke="#000000"
       stroke-width="20"
       stroke-opacity="1"
       stroke-linejoin="miter"
       id="path19" />
    <path
       d="m 2022.79,3393.39 h 188.43 v 64.46 h -188.43 z"
       fill="none"
       stroke="#000000"
       stroke-width="20"
       stroke-opacity="1"
       stroke-linejoin="miter"
       id="path20" />
  </g>
  <g
     stroke-linecap="round"
     id="trap_zone"
     style="display:inline">
    <path
       d="m 1601.81,2900.08 h 168.29 v 613.08 h -168.29 z"
       fill="none"
       stroke="#0000ff"
       stroke-width="19"
       stroke-opacity="1"
       stroke-linejoin="miter"
       id="path23" />
    <path
       d="m 2241.81,2906.08 h 168.29 v 613.08 h -168.29 z"
       fill="none"
       stroke="#0000ff"
       stroke-width="19"
       stroke-opacity="1"
       stroke-linejoin="miter"
       id="path24" />
  </g>
  <g
     stroke-linecap="round"
     id="damage_zone_10">
    <path
       d="m 260,3420 h 284 v 328 H 260 Z"
       fill="none"
       stroke="#ffa500"
       stroke-width="19"
       stroke-opacity="1"
       stroke-linejoin="miter"
       id="path21" />
  </g>
  <g
     stroke-linecap="round"
     id="void">
    <path
       d="m 1490,2096.67 h 250 v 510 h -250 z"
       fill="none"
       stroke="#ff00ff"
       stroke-width="19"
       stroke-opacity="1"
       stroke-linejoin="miter"
       id="path33" />
    <path
       d="m 2280,2103.67 h 250 v 510 h -250 z"
       fill="none"
       stroke="#ff00ff"
       stroke-width="19"
       stroke-opacity="1"
       stroke-linejoin="miter"
       id="path34" />
  </g>
  <g
     id="layer1">
    <rect
       style="fill:#ffff00;stroke:#000000;stroke-width:40;stroke-miterlimit:3.9;paint-order:fill markers stroke"
       id="rect1"
       width="269.08151"
       height="279.43079"
       x="470.89264"
       y="564.03619" />
  </g>
</svg>
