<?xml version="1.0" encoding="UTF-8" standalone="no"?>
<!DOCTYPE svg PUBLIC "-//W3C//DTD SVG 1.1//EN" "http://www.w3.org/Graphics/SVG/1.1/DTD/svg11.dtd">
<svg width="4000.00" height="4000.00" viewBox="0.00 0.00 4000.00 4000.00" xmlns="http://www.w3.org/2000/svg" xmlns:xlink="http://www.w3.org/1999/xlink">
<g stroke-linecap="round" transform="translate(5.00, 0.00)" id="walls">
<path d="M2112.20,63.50 C2129.84,63.50 2167.99,63.50 2188.51,63.50 C2211.90,63.50 2261.57,63.51 2287.84,63.51 C2316.99,63.51 2378.17,63.51 2410.19,63.51 C2445.10,63.51 2517.79,63.52 2555.57,63.52 C2594.32,63.52 2671.08,63.52 2709.10,63.52 C2746.38,63.52 2820.23,63.52 2856.79,63.52 C2892.62,63.52 2963.54,63.51 2998.64,63.51 C3033.01,63.51 3101.59,63.50 3135.81,63.50 C3177.62,63.52 3260.07,63.54 3300.71,63.56 C3340.15,63.58 3417.86,63.61 3456.12,63.63 C3493.20,63.65 3566.16,63.69 3602.05,63.71 C3636.07,63.73 3700.89,63.76 3731.69,63.76 C3759.24,63.75 3811.07,63.73 3835.36,63.71 C3856.40,63.67 3895.21,63.60 3912.99,63.55 C3916.93,63.54 3927.98,63.50 3929.98,63.25 C3932.43,62.96 3933.99,63.36 3934.50,64.50 C3934.51,64.54 3934.72,119.81 3934.78,140.15 C3934.82,163.35 3934.90,212.60 3934.93,238.66 C3934.95,267.58 3934.96,328.26 3934.96,360.04 C3934.95,394.67 3934.90,466.75 3934.87,504.19 C3934.84,542.33 3934.77,618.10 3934.74,655.73 C3934.71,692.86 3934.66,766.60 3934.64,803.21 C3934.61,839.32 3934.57,911.04 3934.55,946.64 C3934.54,981.74 3934.50,1051.32 3934.49,1085.82 C3934.46,1119.64 3934.43,1186.88 3934.41,1220.28 C3934.40,1253.26 3934.37,1318.80 3934.37,1351.35 C3934.36,1383.49 3934.36,1447.33 3934.36,1479.04 C3934.36,1510.32 3934.38,1572.50 3934.39,1603.38 C3934.39,1634.25 3934.41,1696.11 3934.42,1727.11 C3934.43,1758.23 3934.45,1820.61 3934.45,1851.86 C3934.46,1883.24 3934.48,1946.12 3934.48,1977.62 C3934.49,2009.25 3934.50,2072.68 3934.50,2104.48 C3934.50,2136.51 3934.50,2200.70 3934.50,2232.87 C3934.50,2265.16 3934.50,2329.88 3934.50,2362.30 C3934.50,2394.86 3934.50,2460.10 3934.50,2492.79 C3934.50,2525.60 3934.50,2591.35 3934.50,2624.28 C3934.50,2656.99 3934.50,2722.05 3934.50,2754.40 C3934.50,2786.40 3934.50,2850.02 3934.50,2881.65 C3934.50,2912.93 3934.50,2975.12 3934.50,3006.03 C3934.50,3036.58 3934.50,3099.58 3934.50,3132.02 C3934.50,3170.76 3934.50,3247.74 3934.50,3285.98 C3934.50,3323.73 3934.49,3398.75 3934.49,3436.01 C3934.49,3472.77 3934.49,3545.75 3934.49,3581.96 C3934.48,3615.69 3934.48,3679.81 3934.48,3710.20 C3934.48,3737.24 3934.49,3787.97 3934.49,3811.67 C3934.49,3832.02 3934.41,3873.12 3934.32,3893.87 C3934.11,3904.12 3935.32,3920.00 3935.25,3920.30 C3934.90,3921.79 3933.21,3922.63 3931.47,3922.51 C3931.13,3922.48 3875.28,3922.78 3854.63,3922.85 C3831.09,3922.91 3781.13,3923.01 3754.71,3923.04 C3725.40,3923.06 3663.90,3923.08 3631.71,3923.08 C3596.63,3923.06 3523.63,3923.01 3485.71,3922.97 C3447.22,3922.93 3370.92,3922.85 3333.12,3922.81 C3296.02,3922.78 3222.51,3922.71 3186.11,3922.68 C3150.40,3922.65 3079.69,3922.60 3044.68,3922.57 C3010.36,3922.55 2940.24,3922.50 2904.42,3922.48 C2862.96,3922.45 2781.14,3922.38 2740.80,3922.36 C2701.56,3922.34 2624.22,3922.31 2586.10,3922.30 C2549.10,3922.30 2476.22,3922.31 2440.33,3922.32 C2406.67,3922.33 2342.64,3922.35 2312.29,3922.36 C2285.25,3922.37 2234.48,3922.39 2210.76,3922.40 C2190.35,3922.41 2152.84,3922.43 2135.74,3922.43 C2133.84,3922.43 2130.08,3922.44 2128.23,3922.44" fill="none" stroke="rgb(0, 0, 0)" stroke-width="20.00" stroke-opacity="1.00" stroke-linejoin="round"/>
<path d="M1886.95,3922.50 C1868.15,3922.50 1827.46,3922.50 1805.58,3922.50 C1780.62,3922.50 1727.62,3922.50 1699.59,3922.49 C1668.47,3922.49 1603.15,3922.49 1568.95,3922.49 C1531.68,3922.49 1454.07,3922.49 1413.73,3922.49 C1373.21,3922.48 1293.98,3922.48 1255.27,3922.48 C1218.39,3922.48 1146.45,3922.48 1111.39,3922.48 C1078.16,3922.49 1013.51,3922.49 982.09,3922.49 C952.50,3922.49 890.32,3922.50 857.74,3922.50 C809.21,3922.50 719.16,3922.51 677.64,3922.51 C643.13,3922.51 581.03,3922.52 553.44,3922.53 C528.61,3922.53 479.36,3922.53 454.93,3922.53 C430.90,3922.52 381.35,3922.51 355.81,3922.49 C317.69,3922.46 242.53,3922.37 205.51,3922.32 C171.35,3922.24 111.21,3922.00 85.24,3921.84 C75.46,3921.73 57.51,3921.51 57.50,3921.50 C56.98,3921.12 57.47,3918.24 57.50,3917.50 C57.54,3916.86 56.54,3913.73 56.50,3913.50 C56.50,3913.48 56.45,3858.03 56.44,3837.68 C56.43,3814.53 56.41,3765.44 56.41,3739.50 C56.40,3710.76 56.40,3650.48 56.40,3618.95 C56.40,3584.62 56.41,3513.16 56.41,3476.03 C56.42,3437.68 56.44,3361.55 56.44,3323.76 C56.45,3286.53 56.46,3212.62 56.47,3175.95 C56.47,3139.84 56.48,3068.18 56.49,3032.62 C56.49,2997.63 56.50,2928.20 56.50,2893.77 C56.50,2859.42 56.51,2791.18 56.51,2757.30 C56.51,2723.92 56.52,2657.65 56.52,2624.76 C56.52,2592.38 56.52,2528.11 56.52,2496.22 C56.52,2464.83 56.52,2402.55 56.52,2371.67 C56.52,2341.01 56.51,2279.57 56.51,2248.78 C56.51,2217.85 56.51,2155.85 56.51,2124.78 C56.51,2093.57 56.50,2031.02 56.50,1999.67 C56.50,1968.18 56.50,1905.06 56.50,1873.43 C56.50,1841.66 56.50,1777.97 56.50,1746.06 C56.50,1714.01 56.51,1649.76 56.51,1617.57 C56.51,1585.24 56.51,1520.43 56.51,1487.95 C56.51,1455.34 56.51,1389.96 56.52,1357.21 C56.52,1324.48 56.52,1259.37 56.52,1226.98 C56.52,1194.94 56.52,1131.20 56.52,1099.50 C56.52,1068.15 56.51,1005.78 56.51,974.77 C56.51,944.11 56.50,883.12 56.50,852.80 C56.50,815.45 56.49,739.50 56.49,700.91 C56.48,662.78 56.47,586.99 56.46,549.33 C56.46,512.14 56.44,438.22 56.43,401.49 C56.43,366.16 56.42,298.90 56.42,266.98 C56.42,238.55 56.43,185.18 56.43,160.23 C56.45,138.78 56.47,99.36 56.49,81.39 C56.50,73.50 57.53,64.03 58.50,63.50 C58.52,63.49 113.96,63.36 134.33,63.32 C157.55,63.29 206.81,63.24 232.86,63.22 C261.75,63.21 322.36,63.20 354.09,63.19 C388.65,63.20 460.61,63.23 498.01,63.25 C536.60,63.27 613.12,63.31 651.05,63.33 C688.32,63.35 762.18,63.38 798.79,63.40 C834.72,63.41 905.93,63.44 941.20,63.46 C975.81,63.47 1044.36,63.49 1078.30,63.50 C1119.40,63.51 1201.07,63.54 1241.65,63.55 C1281.19,63.56 1359.22,63.57 1397.72,63.58 C1435.17,63.58 1509.02,63.58 1545.43,63.58 C1580.48,63.57 1647.58,63.56 1679.63,63.56 C1708.45,63.55 1762.83,63.55 1788.41,63.54 C1810.74,63.54 1852.17,63.53 1871.26,63.53 C1879.60,63.53 1893.65,63.53 1899.36,63.53" fill="none" stroke="rgb(0, 0, 0)" stroke-width="20.00" stroke-opacity="1.00" stroke-linejoin="round"/>
<path d="M2219.05,190.50 C2240.89,190.50 2283.53,190.50 2304.35,190.50 C2328.10,190.50 2378.54,190.50 2405.22,190.50 C2434.84,190.50 2497.02,190.50 2529.58,190.50 C2565.07,190.50 2638.99,190.50 2677.41,190.50 C2717.81,190.50 2797.30,190.50 2836.39,190.50 C2873.93,190.50 2947.44,190.50 2983.42,190.50 C3017.83,190.50 3085.10,190.50 3117.96,190.50 C3149.25,190.50 3210.27,190.50 3240.01,190.50 C3283.40,190.50 3374.45,190.50 3422.09,190.51 C3464.09,190.51 3542.41,190.51 3578.75,190.51 C3609.55,190.52 3666.77,190.52 3693.18,190.52 C3715.47,190.52 3755.91,190.51 3774.07,190.51 C3781.60,190.51 3803.84,190.71 3805.50,190.50 C3808.22,190.19 3810.80,190.53 3811.50,191.50 C3811.51,191.52 3811.72,246.84 3811.78,267.17 C3811.83,290.32 3811.91,339.44 3811.94,365.41 C3811.96,394.20 3811.97,454.61 3811.98,486.22 C3811.96,520.65 3811.92,592.34 3811.89,629.59 C3811.86,667.88 3811.79,743.92 3811.76,781.66 C3811.73,818.86 3811.68,892.72 3811.65,929.38 C3811.63,965.50 3811.59,1037.18 3811.57,1072.75 C3811.55,1107.78 3811.51,1177.30 3811.50,1211.79 C3811.48,1245.83 3811.45,1313.42 3811.44,1346.96 C3811.43,1380.02 3811.41,1445.63 3811.40,1478.19 C3811.40,1510.26 3811.39,1573.90 3811.39,1605.48 C3811.40,1636.56 3811.40,1698.23 3811.41,1728.82 C3811.42,1759.31 3811.43,1820.57 3811.44,1851.33 C3811.45,1882.36 3811.46,1944.66 3811.46,1975.95 C3811.47,2007.50 3811.48,2070.86 3811.48,2102.67 C3811.49,2134.75 3811.50,2199.16 3811.50,2231.50 C3811.50,2264.23 3811.50,2329.97 3811.50,2362.97 C3811.50,2396.23 3811.50,2463.03 3811.50,2496.56 C3811.50,2530.36 3811.50,2598.22 3811.50,2632.28 C3811.50,2666.61 3811.50,2735.53 3811.50,2770.13 C3811.50,2804.31 3811.50,2871.56 3811.50,2904.64 C3811.50,2936.63 3811.50,2999.50 3811.50,3030.38 C3811.50,3060.17 3811.50,3118.64 3811.50,3147.33 C3811.50,3174.92 3811.50,3229.01 3811.50,3255.50 C3811.50,3301.66 3811.50,3390.32 3811.50,3432.83 C3811.49,3471.67 3811.49,3545.70 3811.49,3580.89 C3811.49,3612.19 3811.48,3670.39 3811.48,3697.30 C3811.49,3719.79 3811.49,3760.37 3811.50,3778.45 C3811.50,3782.28 3811.50,3792.49 3811.41,3794.67 C3811.29,3797.83 3812.06,3804.40 3810.50,3805.50 C3810.48,3805.51 3752.52,3805.72 3731.20,3805.78 C3706.90,3805.83 3655.31,3805.91 3628.02,3805.94 C3597.75,3805.96 3534.22,3805.98 3500.97,3805.98 C3464.73,3805.97 3389.27,3805.93 3350.04,3805.90 C3310.17,3805.87 3231.82,3805.80 3193.35,3805.77 C3156.29,3805.74 3083.57,3805.69 3047.92,3805.66 C3013.67,3805.64 2946.59,3805.59 2913.75,3805.57 C2882.31,3805.55 2819.51,3805.51 2788.14,3805.50 C2739.51,3805.47 2646.47,3805.41 2602.07,3805.39 C2561.90,3805.38 2485.81,3805.37 2449.88,3805.36 C2418.16,3805.37 2358.78,3805.38 2331.12,3805.39 C2307.50,3805.39 2264.27,3805.40 2244.68,3805.41 C2229.11,3805.41 2211.89,3805.42 2210.23,3805.42" fill="none" stroke="rgb(0, 0, 0)" stroke-width="20.00" stroke-opacity="1.00" stroke-linejoin="round"/>
<path d="M1788.37,3805.50 C1766.84,3805.50 1724.49,3805.50 1703.68,3805.50 C1679.94,3805.50 1629.51,3805.50 1602.83,3805.50 C1573.21,3805.50 1511.04,3805.50 1478.48,3805.50 C1442.99,3805.50 1369.07,3805.50 1330.64,3805.50 C1290.24,3805.50 1210.75,3805.50 1171.64,3805.50 C1134.10,3805.50 1060.58,3805.50 1024.61,3805.50 C990.19,3805.50 922.91,3805.50 890.06,3805.50 C858.76,3805.50 797.73,3805.50 768.00,3805.50 C724.60,3805.50 633.55,3805.50 585.90,3805.50 C543.91,3805.49 465.58,3805.49 429.24,3805.49 C398.44,3805.49 341.22,3805.48 314.81,3805.48 C292.53,3805.48 252.09,3805.49 233.93,3805.49 C226.40,3805.50 204.16,3805.29 202.50,3805.50 C199.78,3805.81 197.21,3805.47 196.50,3804.50 C196.49,3804.48 196.28,3749.16 196.22,3728.83 C196.17,3705.68 196.10,3656.56 196.06,3630.59 C196.05,3601.80 196.03,3541.40 196.03,3509.78 C196.04,3475.35 196.08,3403.66 196.11,3366.41 C196.14,3328.12 196.21,3252.09 196.24,3214.34 C196.27,3177.14 196.32,3103.28 196.35,3066.62 C196.37,3030.51 196.42,2958.82 196.44,2923.25 C196.45,2888.22 196.49,2818.70 196.50,2784.21 C196.52,2750.17 196.55,2682.59 196.56,2649.04 C196.58,2615.99 196.59,2550.37 196.60,2517.81 C196.60,2485.74 196.61,2422.10 196.61,2390.53 C196.61,2359.44 196.60,2297.77 196.59,2267.18 C196.58,2236.69 196.57,2175.43 196.56,2144.67 C196.56,2113.65 196.54,2051.34 196.54,2020.05 C196.53,1988.50 196.52,1925.14 196.52,1893.33 C196.51,1861.25 196.51,1796.84 196.50,1764.50 C196.50,1731.77 196.50,1666.03 196.50,1633.03 C196.50,1599.77 196.50,1532.97 196.50,1499.44 C196.50,1465.64 196.50,1397.78 196.50,1363.72 C196.50,1329.39 196.50,1260.47 196.50,1225.87 C196.50,1191.70 196.50,1124.44 196.50,1091.36 C196.50,1059.37 196.50,996.51 196.50,965.62 C196.50,935.84 196.50,877.36 196.50,848.67 C196.50,821.08 196.50,766.99 196.50,740.50 C196.50,694.34 196.51,605.68 196.51,563.18 C196.51,524.33 196.51,450.30 196.52,415.11 C196.52,383.81 196.52,325.61 196.52,298.70 C196.52,276.21 196.51,235.63 196.51,217.55 C196.50,213.72 196.50,203.51 196.59,201.33 C196.71,198.17 195.95,191.60 197.50,190.50 C197.52,190.49 255.44,190.28 276.74,190.22 C301.03,190.17 352.58,190.09 379.84,190.06 C410.09,190.04 473.57,190.02 506.80,190.02 C543.01,190.03 618.42,190.07 657.61,190.10 C697.46,190.14 775.77,190.20 814.23,190.23 C851.30,190.26 924.03,190.32 959.70,190.34 C993.98,190.37 1061.14,190.41 1094.02,190.43 C1125.51,190.45 1188.41,190.49 1219.83,190.51 C1268.31,190.54 1361.11,190.59 1405.45,190.61 C1445.64,190.62 1521.89,190.63 1557.95,190.64 C1589.88,190.63 1649.70,190.62 1677.60,190.61 C1701.48,190.61 1745.22,190.60 1765.08,190.59 C1780.92,190.59 1799.29,190.58 1801.82,190.58" fill="none" stroke="rgb(0, 0, 0)" stroke-width="20.00" stroke-opacity="1.00" stroke-linejoin="round"/>
<path d="M2109.42,72.88 L2109.42,2920.27 L1902.14,2920.27 L1902.14,72.90" fill="none" stroke="rgb(0, 0, 0)" stroke-width="20.00" stroke-opacity="1.00" stroke-linejoin="miter"/>
<path d="M2206.97,187.73 L2206.97,2999.53 L1804.59,2999.53 L1804.59,199.95" fill="none" stroke="rgb(0, 0, 0)" stroke-width="20.00" stroke-opacity="1.00" stroke-linejoin="miter"/>
<path d="M485.13,470.88 L503.13,452.96 L702.91,453.45 L843.83,595.06 L843.34,794.83 L701.73,935.75 L501.96,935.26 L361.04,793.66 L361.53,593.88 L384.56,570.96" fill="none" stroke="rgb(0, 0, 0)" stroke-width="20.00" stroke-opacity="1.00" stroke-linejoin="miter"/>
<path d="M436.35,421.49 L473.84,384.19 L726.29,384.81 L904.36,563.75 L903.75,816.20 L724.80,994.28 L472.35,993.66 L294.28,814.72 L294.89,562.27 L335.78,521.58" fill="none" stroke="rgb(0, 0, 0)" stroke-width="20.00" stroke-opacity="1.00" stroke-linejoin="miter"/>
<path d="M1282.39,471.29 L1295.39,458.28 L1495.16,458.15 L1636.51,599.32 L1636.64,799.10 L1495.47,940.45 L1295.69,940.58 L1154.34,799.40 L1154.21,599.63 L1182.12,571.68" fill="none" stroke="rgb(0, 0, 0)" stroke-width="20.00" stroke-opacity="1.00" stroke-linejoin="miter"/>
<path d="M1233.46,422.06 L1265.88,389.60 L1518.33,389.44 L1696.95,567.83 L1697.11,820.29 L1518.72,998.91 L1266.26,999.07 L1087.64,820.67 L1087.48,568.22 L1133.19,522.45" fill="none" stroke="rgb(0, 0, 0)" stroke-width="20.00" stroke-opacity="1.00" stroke-linejoin="miter"/>
<path d="M2814.32,576.12 L2839.34,601.16 L2839.24,800.94 L2697.91,942.13 L2498.13,942.03 L2356.94,800.70 L2357.04,600.92 L2498.37,459.73 L2698.15,459.83 L2714.04,475.74" fill="none" stroke="rgb(0, 0, 0)" stroke-width="20.00" stroke-opacity="1.00" stroke-linejoin="miter"/>
<path d="M2863.61,527.25 L2908.05,571.73 L2907.93,824.19 L2729.33,1002.61 L2476.88,1002.48 L2298.45,823.88 L2298.58,571.43 L2477.18,393.01 L2729.63,393.14 L2763.33,426.87" fill="none" stroke="rgb(0, 0, 0)" stroke-width="20.00" stroke-opacity="1.00" stroke-linejoin="miter"/>
<path d="M3608.81,582.65 L3632.40,606.29 L3632.21,806.06 L3490.81,947.19 L3291.03,947.00 L3149.91,805.60 L3150.10,605.83 L3291.50,464.70 L3491.27,464.89 L3508.57,482.22" fill="none" stroke="rgb(0, 0, 0)" stroke-width="20.00" stroke-opacity="1.00" stroke-linejoin="miter"/>
<path d="M3658.12,533.80 L3701.13,576.89 L3700.88,829.34 L3522.20,1007.68 L3269.75,1007.44 L3091.41,828.76 L3091.65,576.31 L3270.33,397.97 L3522.79,398.21 L3557.88,433.37" fill="none" stroke="rgb(0, 0, 0)" stroke-width="20.00" stroke-opacity="1.00" stroke-linejoin="miter"/>
<path d="M1798.11,3805.92 L1798.11,3485.38 L2200.43,3485.38 L2200.43,3805.84" fill="none" stroke="rgb(0, 0, 0)" stroke-width="20.00" stroke-opacity="1.00" stroke-linejoin="miter"/>
<path d="M1896.74,3922.93 L1896.74,3596.22 L2118.43,3596.22 L2118.43,3922.87" fill="none" stroke="rgb(0, 0, 0)" stroke-width="20.00" stroke-opacity="1.00" stroke-linejoin="miter"/>
<path d="M1800.00,3085.45 L2207.27,3085.45 L2207.27,3214.55 L1800.00,3214.55 L1800.00,3085.45 Z" fill="none" stroke="rgb(0, 0, 0)" stroke-width="20.00" stroke-opacity="1.00" stroke-linejoin="miter"/>
<path d="M1801.82,3280.91 L2207.27,3280.91 L2207.27,3357.27 L1801.82,3357.27 L1801.82,3280.91 Z" fill="none" stroke="rgb(0, 0, 0)" stroke-width="20.00" stroke-opacity="1.00" stroke-linejoin="miter"/>
<path d="M1798.00,3393.39 L1968.25,3393.39 L1968.25,3459.50 L1798.00,3459.50 L1798.00,3393.39 Z" fill="none" stroke="rgb(0, 0, 0)" stroke-width="20.00" stroke-opacity="1.00" stroke-linejoin="miter"/>
<path d="M2022.79,3393.39 L2211.22,3393.39 L2211.22,3457.85 L2022.79,3457.85 L2022.79,3393.39 Z" fill="none" stroke="rgb(0, 0, 0)" stroke-width="20.00" stroke-opacity="1.00" stroke-linejoin="miter"/>
</g>
<g stroke-linecap="round" id="wind_right_20"/>
<g stroke-linecap="round" id="damage_zone_10">
<path d="M260.00,3420.00 L544.00,3420.00 L544.00,3748.00 L260.00,3748.00 L260.00,3420.00 Z" fill="none" stroke="rgb(255, 165, 0)" stroke-width="19.00" stroke-opacity="1.00" stroke-linejoin="miter"/>
<path d="M598.08,3604.92 L1744.85,3604.92 L1744.85,3780.50 L598.08,3780.50 L598.08,3604.92 Z" fill="none" stroke="rgb(0, 255, 255)" stroke-width="19.00" stroke-opacity="1.00" stroke-linejoin="miter"/>
</g>
<g stroke-linecap="round" id="trap_zone">
<path d="M1601.81,2900.08 L1770.10,2900.08 L1770.10,3513.16 L1601.81,3513.16 L1601.81,2900.08 Z" fill="none" stroke="rgb(0, 0, 255)" stroke-width="19.00" stroke-opacity="1.00" stroke-linejoin="miter"/>
<path d="M2241.81,2906.08 L2410.10,2906.08 L2410.10,3519.16 L2241.81,3519.16 L2241.81,2906.08 Z" fill="none" stroke="rgb(0, 0, 255)" stroke-width="19.00" stroke-opacity="1.00" stroke-linejoin="miter"/>
</g>
<g stroke-linecap="round" id="jumpable_speed_400">
<path d="M1112.26,2429.54 L1236.91,2429.08 L1569.82,2759.53 L1571.56,3228.59 L1241.11,3561.49 L772.05,3563.23 L439.14,3232.78 L437.41,2763.72 L767.85,2430.82 L893.52,2430.35" fill="none" stroke="rgb(0, 255, 0)" stroke-width="20.00" stroke-opacity="1.00" stroke-linejoin="miter"/>
<path d="M1112.26,1120.53 L1234.91,1120.08 L1567.82,1450.53 L1569.56,1919.59 L1239.11,2252.49 L770.05,2254.23 L437.14,1923.78 L435.41,1454.72 L765.85,1121.82 L893.52,1121.34" fill="none" stroke="rgb(0, 255, 0)" stroke-width="20.00" stroke-opacity="1.00" stroke-linejoin="miter"/>
<path d="M3117.26,2431.51 L3233.91,2431.08 L3566.82,2761.53 L3568.56,3230.59 L3238.11,3563.49 L2769.05,3565.23 L2436.14,3234.78 L2434.41,2765.72 L2764.85,2432.82 L2898.52,2432.32" fill="none" stroke="rgb(0, 255, 0)" stroke-width="20.00" stroke-opacity="1.00" stroke-linejoin="miter"/>
<path d="M3117.26,1122.50 L3231.91,1122.08 L3564.82,1452.53 L3566.56,1921.59 L3236.11,2254.49 L2767.05,2256.23 L2434.14,1925.78 L2432.41,1456.72 L2762.85,1123.82 L2898.52,1123.31" fill="none" stroke="rgb(0, 255, 0)" stroke-width="20.00" stroke-opacity="1.00" stroke-linejoin="miter"/>
</g>
<g stroke-linecap="round" id="breakable_momentum_3">
<path d="M1112.26,2558.51 L1185.85,2558.24 L1449.29,2819.74 L1450.66,3190.92 L1189.17,3454.37 L817.98,3455.74 L554.53,3194.24 L553.16,2823.06 L814.66,2559.61 L893.52,2559.32" fill="none" stroke="rgb(255, 0, 0)" stroke-width="20.00" stroke-opacity="1.00" stroke-linejoin="miter"/>
<path d="M1112.26,1249.50 L1183.85,1249.24 L1447.29,1510.74 L1448.66,1881.92 L1187.17,2145.37 L815.98,2146.74 L552.53,1885.24 L551.16,1514.06 L812.66,1250.61 L893.52,1250.31" fill="none" stroke="rgb(255, 0, 0)" stroke-width="20.00" stroke-opacity="1.00" stroke-linejoin="miter"/>
<path d="M3117.26,2560.48 L3182.85,2560.24 L3446.29,2821.74 L3447.66,3192.92 L3186.17,3456.37 L2814.98,3457.74 L2551.53,3196.24 L2550.16,2825.06 L2811.66,2561.61 L2898.52,2561.29" fill="none" stroke="rgb(255, 0, 0)" stroke-width="20.00" stroke-opacity="1.00" stroke-linejoin="miter"/>
<path d="M3117.26,1251.47 L3180.85,1251.24 L3444.29,1512.74 L3445.66,1883.92 L3184.17,2147.37 L2812.98,2148.74 L2549.53,1887.24 L2548.16,1516.06 L2809.66,1252.61 L2898.52,1252.28" fill="none" stroke="rgb(255, 0, 0)" stroke-width="20.00" stroke-opacity="1.00" stroke-linejoin="miter"/>
</g>
<g stroke-linecap="round" id="void">
<path d="M1490.00,2096.67 L1740.00,2096.67 L1740.00,2606.67 L1490.00,2606.67 L1490.00,2096.67 Z" fill="none" stroke="rgb(255, 0, 255)" stroke-width="19.00" stroke-opacity="1.00" stroke-linejoin="miter"/>
<path d="M2280.00,2103.67 L2530.00,2103.67 L2530.00,2613.67 L2280.00,2613.67 L2280.00,2103.67 Z" fill="none" stroke="rgb(255, 0, 255)" stroke-width="19.00" stroke-opacity="1.00" stroke-linejoin="miter"/>
</g>
</svg>
